<svg data-v-423bf9ae="" xmlns="http://www.w3.org/2000/svg" viewBox="0 0 229 90" class="iconLeft"><!----><!----><!----><g data-v-423bf9ae="" id="05033a4a-4ee9-44e6-9249-245213c8e34f" fill="white" transform="matrix(3.298515916977585,0,0,3.298515916977585,107.65806087329156,8.304012067651065)"><path d="M2.23 12.60Q2.23 13.40 2.53 13.90Q2.84 14.41 3.49 14.41Q4.14 14.41 4.68 13.83Q5.22 13.24 5.55 12.26Q5.88 11.27 6.13 10.16Q6.37 9.04 6.48 7.78L6.48 7.78Q6.69 5.45 6.69 4.07Q6.69 2.70 6.58 2.03L6.58 2.03Q8.02 2.49 8.02 4.93L8.02 4.93Q8.02 5.92 7.55 8.93Q7.08 11.94 7.08 13.33Q7.08 14.71 7.21 15.68L7.21 15.68Q6.41 15.41 6.12 14.73Q5.82 14.04 5.82 12.98L5.82 12.98Q5.39 14.18 4.54 14.88Q3.68 15.58 2.77 15.58Q1.85 15.58 1.28 14.88Q0.71 14.17 0.71 12.80L0.71 12.80Q0.71 10.51 1.91 9.04Q3.11 7.57 4.89 7.57L4.89 7.57Q5.39 7.57 5.96 7.73L5.96 7.73Q5.01 7.88 4.26 8.42Q3.50 8.96 3.08 9.69L3.08 9.69Q2.23 11.17 2.23 12.60L2.23 12.60ZM15.57 8.32L15.57 8.32Q15.57 8.81 15.15 9.67Q14.73 10.54 14.13 11.58Q13.52 12.61 12.92 13.78Q12.32 14.95 11.90 16.35Q11.48 17.74 11.48 19.01L11.48 19.01Q11.48 19.64 11.58 20.22L11.58 20.22Q10.68 20.01 10.37 19.59Q10.05 19.18 10.05 18.62L10.05 18.62Q10.05 17.82 11.03 15.58L11.03 15.58Q10.82 14.71 10.51 12.86Q10.21 11.00 9.89 9.63Q9.58 8.26 9.17 7.59L9.17 7.59Q9.70 7.22 10.08 7.22L10.08 7.22Q10.81 7.22 11.07 7.97Q11.34 8.72 11.54 10.84Q11.75 12.95 11.96 13.94L11.96 13.94Q14.70 8.78 14.70 7.04L14.70 7.04Q15.57 7.63 15.57 8.32ZM19.15 8.73Q18.61 9.38 18.33 10.33Q18.06 11.27 18.06 12.35Q18.06 13.43 18.42 14.08Q18.79 14.74 19.40 14.74Q20.01 14.74 20.59 14.38Q21.18 14.01 21.59 13.37L21.59 13.37Q22.11 13.44 22.11 13.75L22.11 13.75Q21.73 14.45 21.16 14.90Q20.59 15.34 20.10 15.49Q19.61 15.64 19.11 15.64L19.11 15.64Q18.03 15.64 17.29 14.79Q16.55 13.94 16.55 12.33L16.55 12.33Q16.55 10.29 17.65 8.82Q18.76 7.35 20.59 7.35L20.59 7.35Q21.60 7.35 22.12 7.88Q22.64 8.40 22.64 9.09Q22.64 9.79 22.25 10.28Q21.87 10.77 21.27 10.77L21.27 10.77Q20.89 10.77 20.62 10.64L20.62 10.64Q20.85 10.39 21.01 9.93Q21.17 9.48 21.17 9.04L21.17 9.04Q21.17 8.08 20.37 8.08L20.37 8.08Q19.70 8.08 19.15 8.73ZM28.81 7.76L28.81 7.76Q28.81 8.34 28.59 8.57Q28.36 8.79 27.93 8.79L27.93 8.79L26.92 8.79Q26.87 9.16 26.63 10.53L26.63 10.53Q26.15 13.13 26.15 14.46Q26.15 15.79 26.35 16.23L26.35 16.23Q25.55 15.93 25.21 15.34Q24.88 14.74 24.88 13.89Q24.88 13.03 24.98 12.27Q25.09 11.51 25.28 10.49Q25.48 9.46 25.56 8.85L25.56 8.85Q24.77 8.96 24.00 9.30L24.00 9.30Q23.97 9.07 23.97 8.89L23.97 8.89Q23.97 8.22 24.42 7.99Q24.86 7.76 25.70 7.76L25.70 7.76Q25.80 6.72 25.80 6.21Q25.80 5.70 25.80 5.39Q25.79 5.08 25.79 4.93L25.79 4.93Q26.43 5.03 26.78 5.50Q27.13 5.96 27.13 6.78L27.13 6.78Q27.13 7.20 27.06 7.80L27.06 7.80Q28.28 7.80 28.78 7.39L28.78 7.39Q28.81 7.59 28.81 7.76ZM31.77 9.95Q31.36 10.65 31.14 11.39Q30.93 12.12 30.93 12.80Q30.93 13.47 31.23 13.94Q31.53 14.41 32.09 14.41L32.09 14.41Q32.87 14.41 33.56 13.55Q34.24 12.68 34.62 11.46Q34.99 10.23 34.99 9.19Q34.99 8.15 34.90 7.48L34.90 7.48Q35.24 7.45 35.32 7.45L35.32 7.45Q36.51 7.45 36.51 8.67L36.51 8.67Q36.51 8.93 36.18 10.83Q35.84 12.73 35.84 13.87Q35.84 15.01 36.27 15.89L36.27 15.89Q35.39 15.71 34.99 15.11Q34.59 14.52 34.59 13.40L34.59 13.40Q34.59 13.20 34.65 12.64L34.65 12.64Q34.27 13.97 33.32 14.78Q32.37 15.60 31.45 15.60Q30.53 15.60 29.97 14.90Q29.41 14.21 29.41 12.99Q29.41 11.76 29.87 10.59Q30.32 9.42 31.24 8.57Q32.16 7.71 33.29 7.71L33.29 7.71Q33.78 7.71 34.37 7.91L34.37 7.91Q33.54 8.12 32.86 8.68Q32.17 9.24 31.77 9.95Z"></path></g><!----><g data-v-423bf9ae="" id="3eaf34d6-fd40-4dd5-9645-09d78aabdac1" transform="matrix(2.8125,0,0,2.8125,0,0)" stroke="none" fill="white"><path d="M16 32c8.837 0 16-7.163 16-16S24.837 0 16 0 0 7.163 0 16s7.163 16 16 16zM14.817 6.421h2v8.886h8.887v2H14.817V6.421zm-5.959.437h2v14.283h14.283v2H8.858V6.858z"></path></g><!----></svg>