<svg data-v-423bf9ae="" xmlns="http://www.w3.org/2000/svg" viewBox="0 0 124.01864247211044 60" class="font"><!----><!----><defs data-v-423bf9ae=""><linearGradient data-v-423bf9ae="" gradientTransform="rotate(25)" id="ada7e3fc-b418-41d8-994e-0c1e5cfc000d" x1="0%" y1="0%" x2="100%" y2="0%"><stop data-v-423bf9ae="" offset="0%" style="stop-color: rgb(40, 139, 88); stop-opacity: 1;"></stop><stop data-v-423bf9ae="" offset="100%" style="stop-color: rgb(21, 34, 241); stop-opacity: 1;"></stop></linearGradient></defs><g data-v-423bf9ae="" id="8caa610e-fee6-49da-8093-350b69310704" fill="url(#ada7e3fc-b418-41d8-994e-0c1e5cfc000d)" transform="matrix(3.494467078240729,0,0,3.494467078240729,-2.341291176284173,-17.996506263035265)"><path d="M6.66 5.15L6.66 16.84Q6.66 17.04 6.75 17.20Q6.85 17.36 7.04 17.36L7.04 17.36Q7.24 17.36 7.43 17.19Q7.63 17.01 7.73 16.80L7.73 16.80L7.99 17.02Q7.77 17.50 7.36 17.83Q6.94 18.16 6.55 18.16L6.55 18.16Q5.91 18.16 5.61 17.79Q5.32 17.43 5.33 16.53L5.33 16.53L5.28 16.53Q4.42 18.26 3.19 18.26L3.19 18.26Q1.97 18.26 1.32 17.41Q0.67 16.56 0.67 15.29L0.67 15.29Q0.67 14.28 1.11 13.29Q1.54 12.29 2.35 11.65Q3.15 11.00 4.20 11.00L4.20 11.00Q4.86 11.00 5.35 11.34L5.35 11.34L5.35 5.68L6.66 5.15ZM4.12 11.83Q3.33 11.83 2.82 12.32Q2.31 12.81 2.07 13.50Q1.83 14.20 1.83 14.80L1.83 14.80Q1.83 15.27 2.00 15.85Q2.17 16.42 2.55 16.84Q2.93 17.25 3.51 17.25L3.51 17.25Q4.58 17.25 4.96 16.33Q5.35 15.41 5.35 14.31L5.35 14.31L5.35 12.39Q5.11 12.14 4.79 11.98Q4.48 11.83 4.12 11.83L4.12 11.83ZM14.97 10.89L14.97 17.33Q14.97 18.65 14.44 19.80Q13.92 20.94 13.05 21.63Q12.18 22.32 11.20 22.32L11.20 22.32Q10.82 22.32 10.49 22.20Q10.15 22.09 9.79 21.83L9.79 21.83L10.77 20.58Q11.06 20.87 11.46 21.06Q11.86 21.24 12.21 21.24L12.21 21.24Q12.64 21.24 12.99 20.72Q13.34 20.20 13.54 19.29Q13.75 18.38 13.75 17.23L13.75 17.23Q13.75 14.63 13.76 13.89L13.76 13.89L13.76 13.05L13.68 13.05Q12.53 18.26 10.70 18.26L10.70 18.26Q10.29 18.26 10.09 18.10Q9.90 17.93 9.83 17.51Q9.76 17.09 9.76 16.24L9.76 16.24L9.76 12.29Q9.76 12.07 9.65 11.91Q9.53 11.76 9.37 11.76L9.37 11.76Q9.02 11.76 8.62 12.33L8.62 12.33L8.40 12.11Q8.71 11.45 9.01 11.21Q9.31 10.98 9.88 10.98L9.88 10.98Q10.44 10.98 10.72 11.33Q11.00 11.69 11.00 12.38L11.00 12.38L11.00 16.20Q11.00 16.72 11.30 16.72L11.30 16.72Q11.65 16.72 12.19 15.76Q12.74 14.81 13.16 13.56Q13.58 12.31 13.58 11.52L13.58 11.52L14.97 10.89ZM20.68 11.00Q21.25 11.00 21.74 11.33Q22.23 11.65 22.51 12.35L22.51 12.35L21.36 12.94Q21.22 12.45 20.81 12.17Q20.40 11.89 19.94 11.89L19.94 11.89Q19.26 11.89 18.75 12.24Q18.23 12.59 17.95 13.13Q17.67 13.68 17.67 14.24L17.67 14.24Q17.67 15.22 17.99 15.93Q18.31 16.63 18.87 17.00Q19.43 17.37 20.13 17.37L20.13 17.37Q20.97 17.37 21.60 16.96Q22.23 16.55 22.79 15.90L22.79 15.90L23.03 16.13Q22.34 17.18 21.58 17.72Q20.82 18.26 19.71 18.26L19.71 18.26Q18.84 18.26 18.16 17.85Q17.47 17.44 17.08 16.70Q16.69 15.95 16.69 14.97L16.69 14.97Q16.69 13.87 17.14 12.97Q17.58 12.07 18.48 11.54Q19.38 11.00 20.68 11.00L20.68 11.00ZM26.10 7.36L26.10 11.09L28.04 11.09L27.62 11.98L26.10 11.98L26.10 16.91Q26.10 17.12 26.22 17.26Q26.35 17.39 26.56 17.39L26.56 17.39Q26.85 17.39 27.37 16.84L27.37 16.84L27.57 17.05Q27.30 17.58 26.93 17.84Q26.56 18.10 26.23 18.17Q25.90 18.23 25.90 18.17L25.90 18.17Q25.91 18.17 25.94 18.17Q25.97 18.16 26.03 18.16L26.03 18.16Q24.79 18.16 24.79 16.74L24.79 16.74L24.79 11.98L23.74 11.98L24.18 11.09L24.79 11.09L24.79 7.87L26.10 7.36ZM32.62 11.09Q33.31 11.09 33.92 11.38Q34.52 11.68 34.80 12.28L34.80 12.28L33.80 12.82Q33.57 12.50 33.18 12.24Q32.79 11.98 32.34 11.98L32.34 11.98Q31.63 11.98 31.09 12.36Q30.56 12.73 30.28 13.36Q30.00 13.99 30.00 14.76L30.00 14.76Q30.00 15.86 30.38 16.55Q30.76 17.25 31.57 17.25L31.57 17.25Q32.72 17.25 33.15 16.32Q33.59 15.40 33.59 14.31L33.59 14.31L33.59 13.68L34.82 13.16L34.82 16.84Q34.82 17.02 34.92 17.19Q35.01 17.36 35.21 17.36L35.21 17.36Q35.62 17.36 35.95 16.80L35.95 16.80L36.16 17.02Q35.99 17.50 35.57 17.83Q35.15 18.16 34.73 18.16L34.73 18.16Q34.13 18.16 33.85 17.71Q33.56 17.26 33.56 16.52L33.56 16.52L33.53 16.52Q33.18 17.26 32.59 17.76Q31.99 18.26 31.33 18.26L31.33 18.26Q30.14 18.26 29.53 17.44Q28.92 16.62 28.92 15.25L28.92 15.25Q28.92 14.15 29.41 13.20Q29.90 12.24 30.75 11.66Q31.60 11.09 32.62 11.09L32.62 11.09Z"></path></g><!----><!----></svg>